# xmcd
#
# Track frame offsets:
#	150
#	51672
#	101867
#	133342
#	176927
#	205925
#	218072
#	281535
#
# Disc length: 4396 seconds
#
# Revision: 1
# Processed by: cddbd v1.5.1PL0 Copyright (c) Steve Scherf et al.
# Submitted via: CDex 1.50Beta5
#
DISCID=88112a08
DTITLE=ワーグナー - ワーグナー:管弦楽曲集/ウィルヘルム・フルトヴェングラー Disc 2
DYEAR=1900
DGENRE=Classical
TTITLE0=歌劇「さまよえるオランダ人」序曲
TTITLE1=楽劇「トリスタンとイゾルデ」前奏曲と愛の死ー1
TTITLE2=楽劇「トリスタンとイゾルデ」前奏曲と愛の死ー2
TTITLE3=楽劇「ニュルンベルグのマイスタージンガー」 第1幕前奏曲
TTITLE4=楽劇「ニュルンベルグのマイスタージンガー」 第3幕前奏曲
TTITLE5=楽劇「ニュルンベルグのマイスタージンガー」 徒弟たちの踊り
TTITLE6=舞台神聖祝典劇「パルジファル」 第1幕前奏曲
TTITLE7=舞台神聖祝典劇「パルジファル」 聖金曜日の音楽
EXTD=
EXTT0=
EXTT1=
EXTT2=
EXTT3=
EXTT4=
EXTT5=
EXTT6=
EXTT7=
PLAYORDER=
